<svg width="91" height="64" viewBox="0 0 91 64" fill="none" xmlns="http://www.w3.org/2000/svg">
<path d="M88.4665 53.2623H85.7036C84.7505 53.2623 83.9772 52.4756 83.9772 51.5062V48.696C83.9772 47.7266 83.2038 46.9399 82.2508 46.9399C81.2977 46.9399 80.5243 47.7266 80.5243 48.696V51.5062C80.5243 52.4756 79.751 53.2623 78.7979 53.2623H76.035C75.082 53.2623 74.3086 54.0489 74.3086 55.0183C74.3086 55.9877 75.082 56.7743 76.035 56.7743H78.7979C79.751 56.7743 80.5243 57.5609 80.5243 58.5303V61.3406C80.5243 62.31 81.2977 63.0966 82.2508 63.0966C83.2038 63.0966 83.9772 62.31 83.9772 61.3406V58.5303C83.9772 57.5609 84.7505 56.7743 85.7036 56.7743H88.4665C89.4196 56.7743 90.1929 55.9877 90.1929 55.0183C90.1929 54.0489 89.4196 53.2623 88.4665 53.2623Z" fill="#A58FB9"/>
<path d="M88.7949 46.3199L88.7949 7.95463C88.7949 4.70075 86.1119 2.06299 82.8023 2.06299L7.64447 2.06299C4.3348 2.06299 1.65181 4.70075 1.65181 7.95462L1.65181 55.5553C1.65181 58.8091 4.3348 61.4469 7.64446 61.4469L72.9385 61.4469" stroke="#A5BC91" stroke-width="3.17714" stroke-linecap="round" stroke-linejoin="round"/>
<path d="M21.8867 40.189C21.8867 33.8283 27.0431 28.6719 33.4039 28.6719C39.7646 28.6719 44.921 33.8283 44.921 40.189V42.7885C44.921 45.0816 43.0621 46.9404 40.7691 46.9404H26.0387C23.7456 46.9404 21.8867 45.0816 21.8867 42.7885V40.189Z" fill="#A5BC91"/>
<circle cx="33.4045" cy="22.7145" r="8.34" fill="#A58FB9"/>
<path d="M65.5723 27.4796C65.5723 25.5055 67.1725 23.9053 69.1466 23.9053C71.1206 23.9053 72.7208 25.5055 72.7208 27.4796V28.2016C72.7208 28.8995 72.1551 29.4653 71.4572 29.4653H66.8359C66.138 29.4653 65.5723 28.8995 65.5723 28.2016V27.4796Z" fill="#A5BC91"/>
<ellipse cx="69.1472" cy="22.3169" rx="2.78" ry="2.38286" fill="#A58FB9"/>
<path d="M65.5723 42.5718C65.5723 40.5978 67.1725 38.9976 69.1466 38.9976C71.1206 38.9976 72.7208 40.5978 72.7208 42.5718V43.2939C72.7208 43.9918 72.1551 44.5576 71.4572 44.5576H66.8359C66.138 44.5576 65.5723 43.9918 65.5723 43.2939V42.5718Z" fill="#A5BC91"/>
<ellipse cx="69.1472" cy="37.4087" rx="2.78" ry="2.38286" fill="#A58FB9"/>
</svg>
