<svg width="14" height="19" viewBox="0 0 14 19" fill="none" xmlns="http://www.w3.org/2000/svg">
<path d="M1.22592 6.68681C1.43684 10.4101 1.64368 14.0707 1.85358 17.7748H12.1539C12.3617 14.1031 12.5706 10.4283 12.7805 6.71412C12.5136 6.69895 12.2975 6.70198 12.0866 6.67163C11.7361 6.62104 11.5221 6.40149 11.5395 6.05445C11.5568 5.71247 11.7728 5.5 12.1376 5.49292C12.5105 5.48482 12.8844 5.48584 13.2574 5.48988C13.8351 5.49697 14.0236 5.68313 13.9961 6.25478C13.9125 7.93836 13.8239 9.62093 13.7301 11.3035C13.612 13.4404 13.4815 15.5762 13.3705 17.7131C13.3185 18.7036 13.0322 18.999 12.0316 19C8.67017 19.0021 5.30977 19.0021 1.94834 19C0.981383 19 0.676724 18.6935 0.625778 17.7454C0.42505 13.9756 0.210058 10.2078 0.00729212 6.43892C-0.0365216 5.61939 0.0989952 5.48988 0.914133 5.48988C2.93466 5.48988 4.95416 5.48786 6.97469 5.4909C7.50453 5.49191 7.82447 5.80353 7.71544 6.20419C7.60642 6.60283 7.29667 6.68883 6.92578 6.68782C5.22825 6.68377 3.53073 6.68579 1.8332 6.68579C1.65081 6.68579 1.46945 6.68579 1.22694 6.68579L1.22592 6.68681Z" fill="black"/>
<path d="M7.42043 1.21397C9.25042 0.907406 11.0519 0.606911 12.8543 0.304392C13.3872 0.215357 13.698 0.370157 13.7632 0.759688C13.8274 1.14112 13.5941 1.38294 13.0449 1.47602C8.97123 2.17111 4.89758 2.86417 0.823925 3.5552C0.406166 3.62603 0.0536191 3.41153 0.0261082 3.05134C-0.00649734 2.61527 0.262498 2.42405 0.665992 2.35626C2.43586 2.05779 4.20573 1.75426 5.97458 1.45174C6.03877 1.44061 6.09991 1.41633 6.15493 1.40115C6.22422 0.906395 5.73717 0.252792 6.5625 0.0281796C7.01388 -0.0952562 7.19219 0.166792 7.41941 1.21397H7.42043Z" fill="black"/>
<path d="M8.76618 12.5134C8.76618 11.2841 8.76414 10.0558 8.76618 8.82651C8.7672 8.27307 8.96894 8.01406 9.37549 8.01912C9.78102 8.02519 9.98379 8.28622 9.98277 8.83966C9.97666 11.2811 9.96545 13.7214 9.95628 16.1628C9.95628 16.2134 9.95628 16.264 9.95424 16.3146C9.941 16.7264 9.75759 17.0158 9.3164 16.9955C8.90781 16.9763 8.75089 16.7001 8.75395 16.3015C8.76312 15.0388 8.75701 13.7761 8.75701 12.5134C8.75904 12.5134 8.7621 12.5134 8.76414 12.5134H8.76618Z" fill="black"/>
<path d="M5.74496 12.5369C5.74496 13.7651 5.73783 14.9934 5.74904 16.2217C5.75209 16.6457 5.63899 16.9644 5.16214 17.0028C4.78717 17.0321 4.55893 16.7438 4.55588 16.2399C4.54161 13.7672 4.53244 11.2934 4.52735 8.82063C4.52633 8.27226 4.74132 7.99503 5.14889 8.02235C5.63594 8.05473 5.73579 8.38557 5.73273 8.80242C5.7256 10.0469 5.7307 11.2924 5.7307 12.5379C5.73579 12.5379 5.74088 12.5379 5.74598 12.5379L5.74496 12.5369Z" fill="black"/>
<path d="M9.62437 5.38529C9.9117 5.51581 10.2571 5.56741 10.3753 5.75762C10.4843 5.93367 10.4324 6.31106 10.306 6.50532C10.1185 6.79468 9.15057 6.79974 8.95595 6.51038C8.82655 6.31814 8.77458 5.94075 8.88259 5.76167C8.99773 5.57044 9.34212 5.51581 9.62437 5.38428V5.38529Z" fill="black"/>
</svg>
