<svg width="26" height="26" viewBox="0 0 26 26" fill="none" xmlns="http://www.w3.org/2000/svg">
<mask id="path-1-inside-1_1_139" fill="white">
<path fill-rule="evenodd" clip-rule="evenodd" d="M18.1033 15.8609C19.2965 14.2141 20 12.1892 20 10C20 4.47715 15.5228 0 10 0C4.47715 0 0 4.47715 0 10C0 15.5228 4.47715 20 10 20C12.2513 20 14.3289 19.256 16.0003 18.0005L22.9999 25.0001C23.5857 25.5859 24.5354 25.5859 25.1212 25.0001C25.707 24.4143 25.707 23.4646 25.1212 22.8788L18.1033 15.8609Z"/>
</mask>
<path d="M18.1033 15.8609L17.2935 15.2742L16.7931 15.9649L17.3962 16.568L18.1033 15.8609ZM16.0003 18.0005L16.7074 17.2934L16.0937 16.6797L15.3997 17.201L16.0003 18.0005ZM22.9999 25.0001L22.2928 25.7072L22.9999 25.0001ZM25.1212 22.8788L25.8283 22.1717L25.1212 22.8788ZM19 10C19 11.9715 18.3673 13.7923 17.2935 15.2742L18.9131 16.4476C20.2258 14.6358 21 12.4069 21 10H19ZM10 1C14.9706 1 19 5.02944 19 10H21C21 3.92487 16.0751 -1 10 -1V1ZM1 10C1 5.02944 5.02944 1 10 1V-1C3.92487 -1 -1 3.92487 -1 10H1ZM10 19C5.02944 19 1 14.9706 1 10H-1C-1 16.0751 3.92487 21 10 21V19ZM15.3997 17.201C13.8955 18.3309 12.0274 19 10 19V21C12.4753 21 14.7623 20.1812 16.6009 18.8001L15.3997 17.201ZM23.707 24.293L16.7074 17.2934L15.2932 18.7076L22.2928 25.7072L23.707 24.293ZM24.4141 24.293C24.2188 24.4883 23.9023 24.4883 23.707 24.293L22.2928 25.7072C23.2691 26.6835 24.852 26.6835 25.8283 25.7072L24.4141 24.293ZM24.4141 23.5859C24.6094 23.7812 24.6094 24.0977 24.4141 24.293L25.8283 25.7072C26.8046 24.7309 26.8046 23.148 25.8283 22.1717L24.4141 23.5859ZM17.3962 16.568L24.4141 23.5859L25.8283 22.1717L18.8104 15.1538L17.3962 16.568Z" fill="black" mask="url(#path-1-inside-1_1_139)"/>
</svg>
