<svg width="87" height="92" viewBox="0 0 87 92" fill="none" xmlns="http://www.w3.org/2000/svg">
<path d="M79.57 8.35986H7.23C3.23 8.35986 0 11.5999 0 15.5899V26.0599H86.81V15.5899C86.81 11.5899 83.57 8.35986 79.58 8.35986H79.57ZM23.57 22.9099C20.42 22.9099 17.87 20.3599 17.87 17.2099C17.87 14.0599 20.42 11.5099 23.57 11.5099C26.72 11.5099 29.27 14.0599 29.27 17.2099C29.27 20.3599 26.72 22.9099 23.57 22.9099ZM63.23 22.9099C60.08 22.9099 57.53 20.3599 57.53 17.2099C57.53 14.0599 60.08 11.5099 63.23 11.5099C66.38 11.5099 68.93 14.0599 68.93 17.2099C68.93 20.3599 66.38 22.9099 63.23 22.9099Z" fill="#F7CAC9"/>
<path d="M26.3895 2.81C26.3895 1.25808 25.1315 0 23.5795 0C22.0276 0 20.7695 1.25808 20.7695 2.81V17.62C20.7695 19.1719 22.0276 20.43 23.5795 20.43C25.1315 20.43 26.3895 19.1719 26.3895 17.62V2.81Z" fill="#E1C9F7"/>
<path d="M66.0497 2.81C66.0497 1.25808 64.7916 0 63.2397 0C61.6878 0 60.4297 1.25808 60.4297 2.81V17.62C60.4297 19.1719 61.6878 20.43 63.2397 20.43C64.7916 20.43 66.0497 19.1719 66.0497 17.62V2.81Z" fill="#E1C9F7"/>
<path d="M82.38 32.5098V84.8098C82.38 86.1498 81.25 87.2798 79.91 87.2798H6.47C5.13 87.2798 4 86.1498 4 84.8098V32.5098H82.38ZM86.38 28.5098H0V84.8098C0 88.3698 2.91 91.2798 6.47 91.2798H79.92C83.48 91.2798 86.39 88.3698 86.39 84.8098V28.5098H86.38Z" fill="#F7CAC9"/>
<path d="M52.5008 35.7402H46.4408C45.2589 35.7402 44.3008 36.6983 44.3008 37.8802V43.9402C44.3008 45.1221 45.2589 46.0802 46.4408 46.0802H52.5008C53.6827 46.0802 54.6408 45.1221 54.6408 43.9402V37.8802C54.6408 36.6983 53.6827 35.7402 52.5008 35.7402Z" fill="#A58FB9"/>
<path d="M64.6297 35.7402H58.5697C57.3878 35.7402 56.4297 36.6983 56.4297 37.8802V43.9402C56.4297 45.1221 57.3878 46.0802 58.5697 46.0802H64.6297C65.8116 46.0802 66.7697 45.1221 66.7697 43.9402V37.8802C66.7697 36.6983 65.8116 35.7402 64.6297 35.7402Z" fill="#A58FB9"/>
<path d="M76.7508 35.7402H70.6908C69.5089 35.7402 68.5508 36.6983 68.5508 37.8802V43.9402C68.5508 45.1221 69.5089 46.0802 70.6908 46.0802H76.7508C77.9327 46.0802 78.8908 45.1221 78.8908 43.9402V37.8802C78.8908 36.6983 77.9327 35.7402 76.7508 35.7402Z" fill="#A58FB9"/>
<path d="M16.1102 48.2598H10.0502C8.86827 48.2598 7.91016 49.2179 7.91016 50.3998V56.4598C7.91016 57.6417 8.86827 58.5998 10.0502 58.5998H16.1102C17.292 58.5998 18.2502 57.6417 18.2502 56.4598V50.3998C18.2502 49.2179 17.292 48.2598 16.1102 48.2598Z" fill="#A5BC91"/>
<path d="M28.2391 48.2598H22.1791C20.9972 48.2598 20.0391 49.2179 20.0391 50.3998V56.4598C20.0391 57.6417 20.9972 58.5998 22.1791 58.5998H28.2391C29.421 58.5998 30.3791 57.6417 30.3791 56.4598V50.3998C30.3791 49.2179 29.421 48.2598 28.2391 48.2598Z" fill="#A58FB9"/>
<path d="M40.3699 48.2598H34.3099C33.128 48.2598 32.1699 49.2179 32.1699 50.3998V56.4598C32.1699 57.6417 33.128 58.5998 34.3099 58.5998H40.3699C41.5518 58.5998 42.5099 57.6417 42.5099 56.4598V50.3998C42.5099 49.2179 41.5518 48.2598 40.3699 48.2598Z" fill="#A5BC91"/>
<path d="M52.5008 48.2598H46.4408C45.2589 48.2598 44.3008 49.2179 44.3008 50.3998V56.4598C44.3008 57.6417 45.2589 58.5998 46.4408 58.5998H52.5008C53.6827 58.5998 54.6408 57.6417 54.6408 56.4598V50.3998C54.6408 49.2179 53.6827 48.2598 52.5008 48.2598Z" fill="#A5BC91"/>
<path d="M64.6297 48.2598H58.5697C57.3878 48.2598 56.4297 49.2179 56.4297 50.3998V56.4598C56.4297 57.6417 57.3878 58.5998 58.5697 58.5998H64.6297C65.8116 58.5998 66.7697 57.6417 66.7697 56.4598V50.3998C66.7697 49.2179 65.8116 48.2598 64.6297 48.2598Z" fill="#B0E2E3"/>
<path d="M76.7508 48.2598H70.6908C69.5089 48.2598 68.5508 49.2179 68.5508 50.3998V56.4598C68.5508 57.6417 69.5089 58.5998 70.6908 58.5998H76.7508C77.9327 58.5998 78.8908 57.6417 78.8908 56.4598V50.3998C78.8908 49.2179 77.9327 48.2598 76.7508 48.2598Z" fill="#A58FB9"/>
<path d="M16.1102 60.77H10.0502C8.86827 60.77 7.91016 61.7281 7.91016 62.91V68.97C7.91016 70.1519 8.86827 71.11 10.0502 71.11H16.1102C17.292 71.11 18.2502 70.1519 18.2502 68.97V62.91C18.2502 61.7281 17.292 60.77 16.1102 60.77Z" fill="#A58FB9"/>
<path d="M28.2391 60.77H22.1791C20.9972 60.77 20.0391 61.7281 20.0391 62.91V68.97C20.0391 70.1519 20.9972 71.11 22.1791 71.11H28.2391C29.421 71.11 30.3791 70.1519 30.3791 68.97V62.91C30.3791 61.7281 29.421 60.77 28.2391 60.77Z" fill="#A58FB9"/>
<path d="M40.3699 60.77H34.3099C33.128 60.77 32.1699 61.7281 32.1699 62.91V68.97C32.1699 70.1519 33.128 71.11 34.3099 71.11H40.3699C41.5518 71.11 42.5099 70.1519 42.5099 68.97V62.91C42.5099 61.7281 41.5518 60.77 40.3699 60.77Z" fill="#B0E2E3"/>
<path d="M52.5008 60.77H46.4408C45.2589 60.77 44.3008 61.7281 44.3008 62.91V68.97C44.3008 70.1519 45.2589 71.11 46.4408 71.11H52.5008C53.6827 71.11 54.6408 70.1519 54.6408 68.97V62.91C54.6408 61.7281 53.6827 60.77 52.5008 60.77Z" fill="#A5BC91"/>
<path d="M64.6297 60.77H58.5697C57.3878 60.77 56.4297 61.7281 56.4297 62.91V68.97C56.4297 70.1519 57.3878 71.11 58.5697 71.11H64.6297C65.8116 71.11 66.7697 70.1519 66.7697 68.97V62.91C66.7697 61.7281 65.8116 60.77 64.6297 60.77Z" fill="#A5BC91"/>
<path d="M76.7508 60.77H70.6908C69.5089 60.77 68.5508 61.7281 68.5508 62.91V68.97C68.5508 70.1519 69.5089 71.11 70.6908 71.11H76.7508C77.9327 71.11 78.8908 70.1519 78.8908 68.97V62.91C78.8908 61.7281 77.9327 60.77 76.7508 60.77Z" fill="#A5BC91"/>
<path d="M16.1102 73.2798H10.0502C8.86827 73.2798 7.91016 74.2379 7.91016 75.4198V81.4798C7.91016 82.6617 8.86827 83.6198 10.0502 83.6198H16.1102C17.292 83.6198 18.2502 82.6617 18.2502 81.4798V75.4198C18.2502 74.2379 17.292 73.2798 16.1102 73.2798Z" fill="#A5BC91"/>
<path d="M28.2391 73.2798H22.1791C20.9972 73.2798 20.0391 74.2379 20.0391 75.4198V81.4798C20.0391 82.6617 20.9972 83.6198 22.1791 83.6198H28.2391C29.421 83.6198 30.3791 82.6617 30.3791 81.4798V75.4198C30.3791 74.2379 29.421 73.2798 28.2391 73.2798Z" fill="#A58FB9"/>
<path d="M40.3699 73.2798H34.3099C33.128 73.2798 32.1699 74.2379 32.1699 75.4198V81.4798C32.1699 82.6617 33.128 83.6198 34.3099 83.6198H40.3699C41.5518 83.6198 42.5099 82.6617 42.5099 81.4798V75.4198C42.5099 74.2379 41.5518 73.2798 40.3699 73.2798Z" fill="#A58FB9"/>
<path d="M52.5008 73.2798H46.4408C45.2589 73.2798 44.3008 74.2379 44.3008 75.4198V81.4798C44.3008 82.6617 45.2589 83.6198 46.4408 83.6198H52.5008C53.6827 83.6198 54.6408 82.6617 54.6408 81.4798V75.4198C54.6408 74.2379 53.6827 73.2798 52.5008 73.2798Z" fill="#A5BC91"/>
</svg>
