<svg width="20" height="20" viewBox="0 0 20 20" fill="none" xmlns="http://www.w3.org/2000/svg">
<g clip-path="url(#clip0_1_877)">
<path d="M20 3.32638C19.7985 3.67871 19.6817 4.03222 19.448 4.2687C16.4149 7.33689 13.3663 10.3872 10.3201 13.4434C10.2784 13.4852 10.2414 13.5461 10.1902 13.5641C8.72132 14.0836 7.26558 14.6521 5.7705 15.088C5.22207 15.248 4.69509 14.5016 4.88228 13.914C5.29718 12.6098 5.75023 11.3175 6.21283 10.0301C6.28913 9.81868 6.47631 9.63595 6.64204 9.46994C9.60001 6.49609 12.5604 3.52464 15.5243 0.556766C16.2552 -0.17535 16.8322 -0.18371 17.5774 0.536462C18.2069 1.14317 18.8328 1.75586 19.4253 2.3984C19.6543 2.64562 19.7902 2.98123 19.9988 3.32758L20 3.32638ZM13.9493 3.54016C11.758 5.7592 9.55709 7.98899 7.40389 10.1698C8.14904 10.9378 8.96335 11.7774 9.71089 12.5489C11.9237 10.3334 14.1353 8.11917 16.3148 5.93835C15.5565 5.16921 14.7481 4.3511 13.9493 3.54016ZM14.611 2.63726C15.5279 3.54614 16.378 4.38932 17.2638 5.26714C17.7383 4.77867 18.251 4.2269 18.7911 3.70259C19.076 3.4267 19.0462 3.22367 18.7756 2.96331C18.1484 2.35779 17.5356 1.73675 16.93 1.10973C16.6903 0.86251 16.4972 0.826681 16.2349 1.08943C15.6888 1.63523 15.1189 2.15595 14.6122 2.63726H14.611ZM8.93593 13.1747C8.16454 12.4605 7.44561 11.7953 6.72669 11.1288C6.40478 12.0867 6.05426 13.1329 5.65962 14.3057C6.85068 13.8949 7.85932 13.5461 8.93473 13.1747H8.93593Z" fill="black"/>
<path d="M8.40268 2.97863V3.84451C8.16662 3.84451 7.95559 3.84451 7.74337 3.84451C5.81669 3.84451 3.89001 3.84093 1.96453 3.8469C1.05007 3.84929 0.880775 4.02007 0.879583 4.92417C0.877198 9.30134 0.877198 13.6773 0.879583 18.0545C0.879583 18.9024 1.08227 19.1126 1.93472 19.1138C6.28405 19.1186 10.6334 19.1186 14.9827 19.1138C15.8757 19.1138 16.0677 18.9156 16.0712 18.0222C16.0772 16.0922 16.0736 14.1622 16.0736 12.2334C16.0736 12.0172 16.0736 11.801 16.0736 11.5478H16.944C16.9523 11.7282 16.9702 11.9181 16.9702 12.1068C16.9726 14.0762 16.975 16.0456 16.9702 18.0151C16.9666 19.3778 16.3574 19.9964 15.0125 19.9976C10.6632 20.0012 6.31386 20.0012 1.96453 19.9976C0.583905 19.9976 0.00566319 19.4267 0.00447094 18.0413C-0.00149031 13.6642 -0.00149031 9.2882 0.00447094 4.91103C0.00685544 3.52682 0.583905 2.94997 1.95738 2.94519C3.94367 2.93803 5.92996 2.9428 7.91505 2.94519C8.07004 2.94519 8.22385 2.96549 8.40268 2.97863Z" fill="black"/>
</g>
<defs>
<clipPath id="clip0_1_877">
<rect width="20" height="20" fill="white"/>
</clipPath>
</defs>
</svg>
