<svg width="17" height="22" viewBox="0 0 17 22" fill="none" xmlns="http://www.w3.org/2000/svg">
<mask id="path-1-inside-1_1_1560" fill="white">
<path fill-rule="evenodd" clip-rule="evenodd" d="M11.2857 10.2434C12.91 9.28741 14 7.521 14 5.5C14 2.46243 11.5376 0 8.5 0C5.46243 0 3 2.46243 3 5.5C3 7.58244 4.15733 9.39457 5.86389 10.3283C2.99319 11.456 0.960938 14.2522 0.960938 17.5231V19.2047C0.960938 20.7331 2.1999 21.972 3.72824 21.972H13.648C15.1763 21.972 16.4153 20.7331 16.4153 19.2047V17.5231C16.4153 14.1668 14.2755 11.3103 11.2857 10.2434Z"/>
</mask>
<path d="M11.2857 10.2434L10.7785 9.38155L8.9353 10.4664L10.9496 11.1852L11.2857 10.2434ZM5.86389 10.3283L6.22953 11.259L8.21958 10.4773L6.34388 9.45101L5.86389 10.3283ZM13 5.5C13 7.15232 12.11 8.59787 10.7785 9.38155L11.7929 11.1052C13.7099 9.97695 15 7.88968 15 5.5H13ZM8.5 1C10.9853 1 13 3.01472 13 5.5H15C15 1.91015 12.0899 -1 8.5 -1V1ZM4 5.5C4 3.01472 6.01472 1 8.5 1V-1C4.91015 -1 2 1.91015 2 5.5H4ZM6.34388 9.45101C4.94503 8.68566 4 7.20247 4 5.5H2C2 7.96241 3.36964 10.1035 5.38391 11.2056L6.34388 9.45101ZM1.96094 17.5231C1.96094 14.6771 3.7286 12.2415 6.22953 11.259L5.49825 9.39753C2.25778 10.6705 -0.0390625 13.8273 -0.0390625 17.5231H1.96094ZM1.96094 19.2047V17.5231H-0.0390625V19.2047H1.96094ZM3.72824 20.972C2.75219 20.972 1.96094 20.1808 1.96094 19.2047H-0.0390625C-0.0390625 21.2854 1.64762 22.972 3.72824 22.972V20.972ZM13.648 20.972H3.72824V22.972H13.648V20.972ZM15.4153 19.2047C15.4153 20.1808 14.624 20.972 13.648 20.972V22.972C15.7286 22.972 17.4153 21.2854 17.4153 19.2047H15.4153ZM15.4153 17.5231V19.2047H17.4153V17.5231H15.4153ZM10.9496 11.1852C13.5539 12.1145 15.4153 14.6027 15.4153 17.5231H17.4153C17.4153 13.7309 14.9971 10.506 11.6218 9.30153L10.9496 11.1852Z" fill="black" mask="url(#path-1-inside-1_1_1560)"/>
</svg>
